<svg xmlns="http://www.w3.org/2000/svg" viewBox="0 0 616 84" width="616" height="84" role="img" aria-label="clawd-bar"><defs><filter id="wglow" filterUnits="userSpaceOnUse" x="-2" y="-2" width="34" height="16"><feGaussianBlur stdDeviation="0.8"/><feMerge><feMergeNode/><feMergeNode in="SourceGraphic"/></feMerge></filter><filter id="wedge" filterUnits="userSpaceOnUse" x="-2" y="-2" width="34" height="16"><feMorphology in="SourceAlpha" operator="dilate" radius="0.35" result="outer"/><feMorphology in="SourceAlpha" operator="dilate" radius="0.1" result="inner"/><feFlood flood-color="#7d7d7d"/><feComposite in2="outer" operator="in"/><feComposite in2="inner" operator="out"/><feMerge><feMergeNode/><feMergeNode in="SourceGraphic"/></feMerge></filter></defs><style>@keyframes wa0{0%{d:path("M3 0h12v2h-12zM3 2h2v2h-2zM6 2h6v2h-6zM13 2h2v2h-2zM1 4h16v2h-16zM3 6h12v2h-12zM4 8h1v2h-1zM6 8h1v2h-1zM11 8h1v2h-1zM13 8h1v2h-1z")}4.028%{d:path("M3 0h12v2h-12zM3 2h3v2h-3zM7 2h6v2h-6zM14 2h1v2h-1zM1 4h16v2h-16zM3 6h12v2h-12zM4 8h1v2h-1zM6 8h1v2h-1zM11 8h1v2h-1zM13 8h1v2h-1z")}46.042%{d:path("M3 0h12v2h-12zM3 2h2v2h-2zM6 2h6v2h-6zM13 2h2v2h-2zM1 4h16v2h-16zM3 6h12v2h-12zM4 8h1v2h-1zM6 8h1v2h-1zM11 8h1v2h-1zM13 8h1v2h-1z")}55.069%{d:path("M3 0h12v2h-12zM3 2h1v2h-1zM5 2h6v2h-6zM12 2h3v2h-3zM1 4h16v2h-16zM3 6h12v2h-12zM4 8h1v2h-1zM6 8h1v2h-1zM11 8h1v2h-1zM13 8h1v2h-1z")}63.056%{d:path("M3 0h12v2h-12zM3 2h2v2h-2zM6 2h6v2h-6zM13 2h2v2h-2zM1 4h16v2h-16zM3 6h12v2h-12zM4 8h1v2h-1zM6 8h1v2h-1zM11 8h1v2h-1zM13 8h1v2h-1z")}}.wa0{animation:wa0 7200ms step-end infinite}@keyframes wa1{0%{d:path("M5 2h1v2h-1zM12 2h1v2h-1z")}4.028%{d:path("M6 2h1v2h-1zM13 2h1v2h-1z")}46.042%{d:path("M5 2h1v2h-1zM12 2h1v2h-1z")}55.069%{d:path("M4 2h1v2h-1zM11 2h1v2h-1z")}63.056%{d:path("M5 2h1v2h-1zM12 2h1v2h-1z")}}.wa1{animation:wa1 7200ms step-end infinite}@keyframes wa2{0%{d:path("M23 4h1v2h-1z")}1.389%{d:path("M24 4h1v2h-1z")}1.736%{d:path("M24 6h1v2h-1z")}4.028%{d:path("M25 6h1v2h-1z")}4.375%{d:none}5.833%{d:path("M25 6h1v2h-1z")}6.458%{d:path("M25 8h1v2h-1z")}6.875%{d:path("M26 8h1v2h-1z")}9.931%{d:path("M27 8h1v2h-1z")}10.208%{d:none}11.667%{d:path("M27 6h1v2h-1z")}13.542%{d:path("M28 6h1v2h-1z")}15%{d:path("M28 4h1v2h-1z")}16.042%{d:none}17.5%{d:path("M28 4h1v2h-1z")}18.403%{d:path("M28 2h1v2h-1z")}18.472%{d:path("M29 2h1v2h-1z")}21.875%{d:none}23.333%{d:path("M29 0h1v2h-1z")}26.944%{d:path("M29 2h1v2h-1z")}27.708%{d:none}29.167%{d:path("M29 2h1v2h-1z")}31.597%{d:path("M28 2h1v2h-1z")}31.667%{d:path("M28 4h1v2h-1z")}33.542%{d:none}35%{d:path("M28 4h1v2h-1z")}35.069%{d:path("M28 6h1v2h-1z")}36.528%{d:path("M27 6h1v2h-1z")}39.375%{d:none}40.833%{d:path("M26 8h1v2h-1z")}43.194%{d:path("M25 8h1v2h-1z")}43.611%{d:path("M25 6h1v2h-1z")}45.208%{d:none}46.667%{d:path("M24 6h1v2h-1z")}48.333%{d:path("M24 4h1v2h-1z")}48.681%{d:path("M23 4h1v2h-1z")}51.042%{d:none}52.5%{d:path("M22 2h1v2h-1z")}54.028%{d:path("M21 2h1v2h-1z")}56.458%{d:path("M21 0h1v2h-1z")}56.875%{d:none}58.333%{d:path("M20 0h1v2h-1z")}59.931%{d:path("M19 0h1v2h-1z")}60.278%{d:path("M19 2h1v2h-1z")}62.708%{d:none}64.167%{d:path("M18 2h1v2h-1z")}65%{d:path("M18 4h1v2h-1z")}68.403%{d:path("M18 6h1v2h-1z")}68.472%{d:path("M17 6h1v2h-1z")}68.542%{d:none}70%{d:path("M17 6h1v2h-1z")}73.125%{d:path("M17 8h1v2h-1z")}74.375%{d:none}75.833%{d:path("M17 8h1v2h-1z")}76.944%{d:path("M17 6h1v2h-1z")}80.208%{d:none}81.667%{d:path("M18 4h1v2h-1z")}85.069%{d:path("M18 2h1v2h-1z")}86.042%{d:none}87.5%{d:path("M19 2h1v2h-1z")}89.792%{d:path("M19 0h1v2h-1z")}90.139%{d:path("M20 0h1v2h-1z")}91.875%{d:none}93.333%{d:path("M21 0h1v2h-1z")}93.611%{d:path("M21 2h1v2h-1z")}96.042%{d:path("M22 2h1v2h-1z")}97.708%{d:none}99.167%{d:path("M23 4h1v2h-1z")}}.wa2{animation:wa2 7200ms step-end infinite}@media (prefers-color-scheme:dark){.wg{filter:url(#wglow)}}@media (prefers-color-scheme:light){.wpale{filter:url(#wedge)}}</style><g shape-rendering="crispEdges"><rect x="14" y="28" width="7" height="7" fill="#8a4a38"/><rect x="21" y="28" width="7" height="7" fill="#8a4a38"/><rect x="28" y="28" width="7" height="7" fill="#8a4a38"/><rect x="7" y="35" width="7" height="7" fill="#8a4a38"/><rect x="14" y="35" width="7" height="7" fill="#8a4a38"/><rect x="28" y="35" width="7" height="7" fill="#8a4a38"/><rect x="35" y="35" width="7" height="7" fill="#8a4a38"/><rect x="7" y="42" width="7" height="7" fill="#8a4a38"/><rect x="14" y="42" width="7" height="7" fill="#8a4a38"/><rect x="7" y="49" width="7" height="7" fill="#8a4a38"/><rect x="14" y="49" width="7" height="7" fill="#8a4a38"/><rect x="7" y="56" width="7" height="7" fill="#8a4a38"/><rect x="14" y="56" width="7" height="7" fill="#8a4a38"/><rect x="7" y="63" width="7" height="7" fill="#8a4a38"/><rect x="14" y="63" width="7" height="7" fill="#8a4a38"/><rect x="28" y="63" width="7" height="7" fill="#8a4a38"/><rect x="35" y="63" width="7" height="7" fill="#8a4a38"/><rect x="14" y="70" width="7" height="7" fill="#8a4a38"/><rect x="21" y="70" width="7" height="7" fill="#8a4a38"/><rect x="28" y="70" width="7" height="7" fill="#8a4a38"/><rect x="49" y="28" width="7" height="7" fill="#8a4a38"/><rect x="56" y="28" width="7" height="7" fill="#8a4a38"/><rect x="49" y="35" width="7" height="7" fill="#8a4a38"/><rect x="56" y="35" width="7" height="7" fill="#8a4a38"/><rect x="49" y="42" width="7" height="7" fill="#8a4a38"/><rect x="56" y="42" width="7" height="7" fill="#8a4a38"/><rect x="49" y="49" width="7" height="7" fill="#8a4a38"/><rect x="56" y="49" width="7" height="7" fill="#8a4a38"/><rect x="49" y="56" width="7" height="7" fill="#8a4a38"/><rect x="56" y="56" width="7" height="7" fill="#8a4a38"/><rect x="49" y="63" width="7" height="7" fill="#8a4a38"/><rect x="56" y="63" width="7" height="7" fill="#8a4a38"/><rect x="49" y="70" width="7" height="7" fill="#8a4a38"/><rect x="56" y="70" width="7" height="7" fill="#8a4a38"/><rect x="63" y="70" width="7" height="7" fill="#8a4a38"/><rect x="70" y="70" width="7" height="7" fill="#8a4a38"/><rect x="77" y="70" width="7" height="7" fill="#8a4a38"/><rect x="98" y="28" width="7" height="7" fill="#8a4a38"/><rect x="105" y="28" width="7" height="7" fill="#8a4a38"/><rect x="112" y="28" width="7" height="7" fill="#8a4a38"/><rect x="91" y="35" width="7" height="7" fill="#8a4a38"/><rect x="98" y="35" width="7" height="7" fill="#8a4a38"/><rect x="112" y="35" width="7" height="7" fill="#8a4a38"/><rect x="119" y="35" width="7" height="7" fill="#8a4a38"/><rect x="91" y="42" width="7" height="7" fill="#8a4a38"/><rect x="98" y="42" width="7" height="7" fill="#8a4a38"/><rect x="112" y="42" width="7" height="7" fill="#8a4a38"/><rect x="119" y="42" width="7" height="7" fill="#8a4a38"/><rect x="91" y="49" width="7" height="7" fill="#8a4a38"/><rect x="98" y="49" width="7" height="7" fill="#8a4a38"/><rect x="105" y="49" width="7" height="7" fill="#8a4a38"/><rect x="112" y="49" width="7" height="7" fill="#8a4a38"/><rect x="119" y="49" width="7" height="7" fill="#8a4a38"/><rect x="91" y="56" width="7" height="7" fill="#8a4a38"/><rect x="98" y="56" width="7" height="7" fill="#8a4a38"/><rect x="112" y="56" width="7" height="7" fill="#8a4a38"/><rect x="119" y="56" width="7" height="7" fill="#8a4a38"/><rect x="91" y="63" width="7" height="7" fill="#8a4a38"/><rect x="98" y="63" width="7" height="7" fill="#8a4a38"/><rect x="112" y="63" width="7" height="7" fill="#8a4a38"/><rect x="119" y="63" width="7" height="7" fill="#8a4a38"/><rect x="91" y="70" width="7" height="7" fill="#8a4a38"/><rect x="98" y="70" width="7" height="7" fill="#8a4a38"/><rect x="112" y="70" width="7" height="7" fill="#8a4a38"/><rect x="119" y="70" width="7" height="7" fill="#8a4a38"/><rect x="133" y="28" width="7" height="7" fill="#8a4a38"/><rect x="140" y="28" width="7" height="7" fill="#8a4a38"/><rect x="168" y="28" width="7" height="7" fill="#8a4a38"/><rect x="175" y="28" width="7" height="7" fill="#8a4a38"/><rect x="133" y="35" width="7" height="7" fill="#8a4a38"/><rect x="140" y="35" width="7" height="7" fill="#8a4a38"/><rect x="168" y="35" width="7" height="7" fill="#8a4a38"/><rect x="175" y="35" width="7" height="7" fill="#8a4a38"/><rect x="133" y="42" width="7" height="7" fill="#8a4a38"/><rect x="140" y="42" width="7" height="7" fill="#8a4a38"/><rect x="168" y="42" width="7" height="7" fill="#8a4a38"/><rect x="175" y="42" width="7" height="7" fill="#8a4a38"/><rect x="133" y="49" width="7" height="7" fill="#8a4a38"/><rect x="140" y="49" width="7" height="7" fill="#8a4a38"/><rect x="154" y="49" width="7" height="7" fill="#8a4a38"/><rect x="168" y="49" width="7" height="7" fill="#8a4a38"/><rect x="175" y="49" width="7" height="7" fill="#8a4a38"/><rect x="133" y="56" width="7" height="7" fill="#8a4a38"/><rect x="140" y="56" width="7" height="7" fill="#8a4a38"/><rect x="154" y="56" width="7" height="7" fill="#8a4a38"/><rect x="168" y="56" width="7" height="7" fill="#8a4a38"/><rect x="175" y="56" width="7" height="7" fill="#8a4a38"/><rect x="133" y="63" width="7" height="7" fill="#8a4a38"/><rect x="140" y="63" width="7" height="7" fill="#8a4a38"/><rect x="147" y="63" width="7" height="7" fill="#8a4a38"/><rect x="154" y="63" width="7" height="7" fill="#8a4a38"/><rect x="161" y="63" width="7" height="7" fill="#8a4a38"/><rect x="168" y="63" width="7" height="7" fill="#8a4a38"/><rect x="175" y="63" width="7" height="7" fill="#8a4a38"/><rect x="140" y="70" width="7" height="7" fill="#8a4a38"/><rect x="147" y="70" width="7" height="7" fill="#8a4a38"/><rect x="161" y="70" width="7" height="7" fill="#8a4a38"/><rect x="168" y="70" width="7" height="7" fill="#8a4a38"/><rect x="189" y="28" width="7" height="7" fill="#8a4a38"/><rect x="196" y="28" width="7" height="7" fill="#8a4a38"/><rect x="203" y="28" width="7" height="7" fill="#8a4a38"/><rect x="210" y="28" width="7" height="7" fill="#8a4a38"/><rect x="189" y="35" width="7" height="7" fill="#8a4a38"/><rect x="196" y="35" width="7" height="7" fill="#8a4a38"/><rect x="210" y="35" width="7" height="7" fill="#8a4a38"/><rect x="217" y="35" width="7" height="7" fill="#8a4a38"/><rect x="189" y="42" width="7" height="7" fill="#8a4a38"/><rect x="196" y="42" width="7" height="7" fill="#8a4a38"/><rect x="210" y="42" width="7" height="7" fill="#8a4a38"/><rect x="217" y="42" width="7" height="7" fill="#8a4a38"/><rect x="189" y="49" width="7" height="7" fill="#8a4a38"/><rect x="196" y="49" width="7" height="7" fill="#8a4a38"/><rect x="210" y="49" width="7" height="7" fill="#8a4a38"/><rect x="217" y="49" width="7" height="7" fill="#8a4a38"/><rect x="189" y="56" width="7" height="7" fill="#8a4a38"/><rect x="196" y="56" width="7" height="7" fill="#8a4a38"/><rect x="210" y="56" width="7" height="7" fill="#8a4a38"/><rect x="217" y="56" width="7" height="7" fill="#8a4a38"/><rect x="189" y="63" width="7" height="7" fill="#8a4a38"/><rect x="196" y="63" width="7" height="7" fill="#8a4a38"/><rect x="210" y="63" width="7" height="7" fill="#8a4a38"/><rect x="217" y="63" width="7" height="7" fill="#8a4a38"/><rect x="189" y="70" width="7" height="7" fill="#8a4a38"/><rect x="196" y="70" width="7" height="7" fill="#8a4a38"/><rect x="203" y="70" width="7" height="7" fill="#8a4a38"/><rect x="210" y="70" width="7" height="7" fill="#8a4a38"/><rect x="231" y="49" width="7" height="7" fill="#8a4a38"/><rect x="238" y="49" width="7" height="7" fill="#8a4a38"/><rect x="245" y="49" width="7" height="7" fill="#8a4a38"/><rect x="252" y="49" width="7" height="7" fill="#8a4a38"/><rect x="266" y="28" width="7" height="7" fill="#8a4a38"/><rect x="273" y="28" width="7" height="7" fill="#8a4a38"/><rect x="280" y="28" width="7" height="7" fill="#8a4a38"/><rect x="287" y="28" width="7" height="7" fill="#8a4a38"/><rect x="266" y="35" width="7" height="7" fill="#8a4a38"/><rect x="273" y="35" width="7" height="7" fill="#8a4a38"/><rect x="287" y="35" width="7" height="7" fill="#8a4a38"/><rect x="294" y="35" width="7" height="7" fill="#8a4a38"/><rect x="266" y="42" width="7" height="7" fill="#8a4a38"/><rect x="273" y="42" width="7" height="7" fill="#8a4a38"/><rect x="287" y="42" width="7" height="7" fill="#8a4a38"/><rect x="294" y="42" width="7" height="7" fill="#8a4a38"/><rect x="266" y="49" width="7" height="7" fill="#8a4a38"/><rect x="273" y="49" width="7" height="7" fill="#8a4a38"/><rect x="280" y="49" width="7" height="7" fill="#8a4a38"/><rect x="287" y="49" width="7" height="7" fill="#8a4a38"/><rect x="266" y="56" width="7" height="7" fill="#8a4a38"/><rect x="273" y="56" width="7" height="7" fill="#8a4a38"/><rect x="287" y="56" width="7" height="7" fill="#8a4a38"/><rect x="294" y="56" width="7" height="7" fill="#8a4a38"/><rect x="266" y="63" width="7" height="7" fill="#8a4a38"/><rect x="273" y="63" width="7" height="7" fill="#8a4a38"/><rect x="287" y="63" width="7" height="7" fill="#8a4a38"/><rect x="294" y="63" width="7" height="7" fill="#8a4a38"/><rect x="266" y="70" width="7" height="7" fill="#8a4a38"/><rect x="273" y="70" width="7" height="7" fill="#8a4a38"/><rect x="280" y="70" width="7" height="7" fill="#8a4a38"/><rect x="287" y="70" width="7" height="7" fill="#8a4a38"/><rect x="315" y="28" width="7" height="7" fill="#8a4a38"/><rect x="322" y="28" width="7" height="7" fill="#8a4a38"/><rect x="329" y="28" width="7" height="7" fill="#8a4a38"/><rect x="308" y="35" width="7" height="7" fill="#8a4a38"/><rect x="315" y="35" width="7" height="7" fill="#8a4a38"/><rect x="329" y="35" width="7" height="7" fill="#8a4a38"/><rect x="336" y="35" width="7" height="7" fill="#8a4a38"/><rect x="308" y="42" width="7" height="7" fill="#8a4a38"/><rect x="315" y="42" width="7" height="7" fill="#8a4a38"/><rect x="329" y="42" width="7" height="7" fill="#8a4a38"/><rect x="336" y="42" width="7" height="7" fill="#8a4a38"/><rect x="308" y="49" width="7" height="7" fill="#8a4a38"/><rect x="315" y="49" width="7" height="7" fill="#8a4a38"/><rect x="322" y="49" width="7" height="7" fill="#8a4a38"/><rect x="329" y="49" width="7" height="7" fill="#8a4a38"/><rect x="336" y="49" width="7" height="7" fill="#8a4a38"/><rect x="308" y="56" width="7" height="7" fill="#8a4a38"/><rect x="315" y="56" width="7" height="7" fill="#8a4a38"/><rect x="329" y="56" width="7" height="7" fill="#8a4a38"/><rect x="336" y="56" width="7" height="7" fill="#8a4a38"/><rect x="308" y="63" width="7" height="7" fill="#8a4a38"/><rect x="315" y="63" width="7" height="7" fill="#8a4a38"/><rect x="329" y="63" width="7" height="7" fill="#8a4a38"/><rect x="336" y="63" width="7" height="7" fill="#8a4a38"/><rect x="308" y="70" width="7" height="7" fill="#8a4a38"/><rect x="315" y="70" width="7" height="7" fill="#8a4a38"/><rect x="329" y="70" width="7" height="7" fill="#8a4a38"/><rect x="336" y="70" width="7" height="7" fill="#8a4a38"/><rect x="350" y="28" width="7" height="7" fill="#8a4a38"/><rect x="357" y="28" width="7" height="7" fill="#8a4a38"/><rect x="364" y="28" width="7" height="7" fill="#8a4a38"/><rect x="371" y="28" width="7" height="7" fill="#8a4a38"/><rect x="350" y="35" width="7" height="7" fill="#8a4a38"/><rect x="357" y="35" width="7" height="7" fill="#8a4a38"/><rect x="371" y="35" width="7" height="7" fill="#8a4a38"/><rect x="378" y="35" width="7" height="7" fill="#8a4a38"/><rect x="350" y="42" width="7" height="7" fill="#8a4a38"/><rect x="357" y="42" width="7" height="7" fill="#8a4a38"/><rect x="371" y="42" width="7" height="7" fill="#8a4a38"/><rect x="378" y="42" width="7" height="7" fill="#8a4a38"/><rect x="350" y="49" width="7" height="7" fill="#8a4a38"/><rect x="357" y="49" width="7" height="7" fill="#8a4a38"/><rect x="364" y="49" width="7" height="7" fill="#8a4a38"/><rect x="371" y="49" width="7" height="7" fill="#8a4a38"/><rect x="350" y="56" width="7" height="7" fill="#8a4a38"/><rect x="357" y="56" width="7" height="7" fill="#8a4a38"/><rect x="371" y="56" width="7" height="7" fill="#8a4a38"/><rect x="350" y="63" width="7" height="7" fill="#8a4a38"/><rect x="357" y="63" width="7" height="7" fill="#8a4a38"/><rect x="371" y="63" width="7" height="7" fill="#8a4a38"/><rect x="378" y="63" width="7" height="7" fill="#8a4a38"/><rect x="350" y="70" width="7" height="7" fill="#8a4a38"/><rect x="357" y="70" width="7" height="7" fill="#8a4a38"/><rect x="371" y="70" width="7" height="7" fill="#8a4a38"/><rect x="378" y="70" width="7" height="7" fill="#8a4a38"/><rect x="7" y="21" width="7" height="7" fill="#de886d"/><rect x="14" y="21" width="7" height="7" fill="#de886d"/><rect x="21" y="21" width="7" height="7" fill="#de886d"/><rect x="0" y="28" width="7" height="7" fill="#de886d"/><rect x="7" y="28" width="7" height="7" fill="#de886d"/><rect x="21" y="28" width="7" height="7" fill="#de886d"/><rect x="28" y="28" width="7" height="7" fill="#de886d"/><rect x="0" y="35" width="7" height="7" fill="#de886d"/><rect x="7" y="35" width="7" height="7" fill="#de886d"/><rect x="0" y="42" width="7" height="7" fill="#de886d"/><rect x="7" y="42" width="7" height="7" fill="#de886d"/><rect x="0" y="49" width="7" height="7" fill="#de886d"/><rect x="7" y="49" width="7" height="7" fill="#de886d"/><rect x="0" y="56" width="7" height="7" fill="#de886d"/><rect x="7" y="56" width="7" height="7" fill="#de886d"/><rect x="21" y="56" width="7" height="7" fill="#de886d"/><rect x="28" y="56" width="7" height="7" fill="#de886d"/><rect x="7" y="63" width="7" height="7" fill="#de886d"/><rect x="14" y="63" width="7" height="7" fill="#de886d"/><rect x="21" y="63" width="7" height="7" fill="#de886d"/><rect x="42" y="21" width="7" height="7" fill="#de886d"/><rect x="49" y="21" width="7" height="7" fill="#de886d"/><rect x="42" y="28" width="7" height="7" fill="#de886d"/><rect x="49" y="28" width="7" height="7" fill="#de886d"/><rect x="42" y="35" width="7" height="7" fill="#de886d"/><rect x="49" y="35" width="7" height="7" fill="#de886d"/><rect x="42" y="42" width="7" height="7" fill="#de886d"/><rect x="49" y="42" width="7" height="7" fill="#de886d"/><rect x="42" y="49" width="7" height="7" fill="#de886d"/><rect x="49" y="49" width="7" height="7" fill="#de886d"/><rect x="42" y="56" width="7" height="7" fill="#de886d"/><rect x="49" y="56" width="7" height="7" fill="#de886d"/><rect x="42" y="63" width="7" height="7" fill="#de886d"/><rect x="49" y="63" width="7" height="7" fill="#de886d"/><rect x="56" y="63" width="7" height="7" fill="#de886d"/><rect x="63" y="63" width="7" height="7" fill="#de886d"/><rect x="70" y="63" width="7" height="7" fill="#de886d"/><rect x="91" y="21" width="7" height="7" fill="#de886d"/><rect x="98" y="21" width="7" height="7" fill="#de886d"/><rect x="105" y="21" width="7" height="7" fill="#de886d"/><rect x="84" y="28" width="7" height="7" fill="#de886d"/><rect x="91" y="28" width="7" height="7" fill="#de886d"/><rect x="105" y="28" width="7" height="7" fill="#de886d"/><rect x="112" y="28" width="7" height="7" fill="#de886d"/><rect x="84" y="35" width="7" height="7" fill="#de886d"/><rect x="91" y="35" width="7" height="7" fill="#de886d"/><rect x="105" y="35" width="7" height="7" fill="#de886d"/><rect x="112" y="35" width="7" height="7" fill="#de886d"/><rect x="84" y="42" width="7" height="7" fill="#de886d"/><rect x="91" y="42" width="7" height="7" fill="#de886d"/><rect x="98" y="42" width="7" height="7" fill="#de886d"/><rect x="105" y="42" width="7" height="7" fill="#de886d"/><rect x="112" y="42" width="7" height="7" fill="#de886d"/><rect x="84" y="49" width="7" height="7" fill="#de886d"/><rect x="91" y="49" width="7" height="7" fill="#de886d"/><rect x="105" y="49" width="7" height="7" fill="#de886d"/><rect x="112" y="49" width="7" height="7" fill="#de886d"/><rect x="84" y="56" width="7" height="7" fill="#de886d"/><rect x="91" y="56" width="7" height="7" fill="#de886d"/><rect x="105" y="56" width="7" height="7" fill="#de886d"/><rect x="112" y="56" width="7" height="7" fill="#de886d"/><rect x="84" y="63" width="7" height="7" fill="#de886d"/><rect x="91" y="63" width="7" height="7" fill="#de886d"/><rect x="105" y="63" width="7" height="7" fill="#de886d"/><rect x="112" y="63" width="7" height="7" fill="#de886d"/><rect x="126" y="21" width="7" height="7" fill="#de886d"/><rect x="133" y="21" width="7" height="7" fill="#de886d"/><rect x="161" y="21" width="7" height="7" fill="#de886d"/><rect x="168" y="21" width="7" height="7" fill="#de886d"/><rect x="126" y="28" width="7" height="7" fill="#de886d"/><rect x="133" y="28" width="7" height="7" fill="#de886d"/><rect x="161" y="28" width="7" height="7" fill="#de886d"/><rect x="168" y="28" width="7" height="7" fill="#de886d"/><rect x="126" y="35" width="7" height="7" fill="#de886d"/><rect x="133" y="35" width="7" height="7" fill="#de886d"/><rect x="161" y="35" width="7" height="7" fill="#de886d"/><rect x="168" y="35" width="7" height="7" fill="#de886d"/><rect x="126" y="42" width="7" height="7" fill="#de886d"/><rect x="133" y="42" width="7" height="7" fill="#de886d"/><rect x="147" y="42" width="7" height="7" fill="#de886d"/><rect x="161" y="42" width="7" height="7" fill="#de886d"/><rect x="168" y="42" width="7" height="7" fill="#de886d"/><rect x="126" y="49" width="7" height="7" fill="#de886d"/><rect x="133" y="49" width="7" height="7" fill="#de886d"/><rect x="147" y="49" width="7" height="7" fill="#de886d"/><rect x="161" y="49" width="7" height="7" fill="#de886d"/><rect x="168" y="49" width="7" height="7" fill="#de886d"/><rect x="126" y="56" width="7" height="7" fill="#de886d"/><rect x="133" y="56" width="7" height="7" fill="#de886d"/><rect x="140" y="56" width="7" height="7" fill="#de886d"/><rect x="147" y="56" width="7" height="7" fill="#de886d"/><rect x="154" y="56" width="7" height="7" fill="#de886d"/><rect x="161" y="56" width="7" height="7" fill="#de886d"/><rect x="168" y="56" width="7" height="7" fill="#de886d"/><rect x="133" y="63" width="7" height="7" fill="#de886d"/><rect x="140" y="63" width="7" height="7" fill="#de886d"/><rect x="154" y="63" width="7" height="7" fill="#de886d"/><rect x="161" y="63" width="7" height="7" fill="#de886d"/><rect x="182" y="21" width="7" height="7" fill="#de886d"/><rect x="189" y="21" width="7" height="7" fill="#de886d"/><rect x="196" y="21" width="7" height="7" fill="#de886d"/><rect x="203" y="21" width="7" height="7" fill="#de886d"/><rect x="182" y="28" width="7" height="7" fill="#de886d"/><rect x="189" y="28" width="7" height="7" fill="#de886d"/><rect x="203" y="28" width="7" height="7" fill="#de886d"/><rect x="210" y="28" width="7" height="7" fill="#de886d"/><rect x="182" y="35" width="7" height="7" fill="#de886d"/><rect x="189" y="35" width="7" height="7" fill="#de886d"/><rect x="203" y="35" width="7" height="7" fill="#de886d"/><rect x="210" y="35" width="7" height="7" fill="#de886d"/><rect x="182" y="42" width="7" height="7" fill="#de886d"/><rect x="189" y="42" width="7" height="7" fill="#de886d"/><rect x="203" y="42" width="7" height="7" fill="#de886d"/><rect x="210" y="42" width="7" height="7" fill="#de886d"/><rect x="182" y="49" width="7" height="7" fill="#de886d"/><rect x="189" y="49" width="7" height="7" fill="#de886d"/><rect x="203" y="49" width="7" height="7" fill="#de886d"/><rect x="210" y="49" width="7" height="7" fill="#de886d"/><rect x="182" y="56" width="7" height="7" fill="#de886d"/><rect x="189" y="56" width="7" height="7" fill="#de886d"/><rect x="203" y="56" width="7" height="7" fill="#de886d"/><rect x="210" y="56" width="7" height="7" fill="#de886d"/><rect x="182" y="63" width="7" height="7" fill="#de886d"/><rect x="189" y="63" width="7" height="7" fill="#de886d"/><rect x="196" y="63" width="7" height="7" fill="#de886d"/><rect x="203" y="63" width="7" height="7" fill="#de886d"/><rect x="224" y="42" width="7" height="7" fill="#de886d"/><rect x="231" y="42" width="7" height="7" fill="#de886d"/><rect x="238" y="42" width="7" height="7" fill="#de886d"/><rect x="245" y="42" width="7" height="7" fill="#de886d"/><rect x="259" y="21" width="7" height="7" fill="#de886d"/><rect x="266" y="21" width="7" height="7" fill="#de886d"/><rect x="273" y="21" width="7" height="7" fill="#de886d"/><rect x="280" y="21" width="7" height="7" fill="#de886d"/><rect x="259" y="28" width="7" height="7" fill="#de886d"/><rect x="266" y="28" width="7" height="7" fill="#de886d"/><rect x="280" y="28" width="7" height="7" fill="#de886d"/><rect x="287" y="28" width="7" height="7" fill="#de886d"/><rect x="259" y="35" width="7" height="7" fill="#de886d"/><rect x="266" y="35" width="7" height="7" fill="#de886d"/><rect x="280" y="35" width="7" height="7" fill="#de886d"/><rect x="287" y="35" width="7" height="7" fill="#de886d"/><rect x="259" y="42" width="7" height="7" fill="#de886d"/><rect x="266" y="42" width="7" height="7" fill="#de886d"/><rect x="273" y="42" width="7" height="7" fill="#de886d"/><rect x="280" y="42" width="7" height="7" fill="#de886d"/><rect x="259" y="49" width="7" height="7" fill="#de886d"/><rect x="266" y="49" width="7" height="7" fill="#de886d"/><rect x="280" y="49" width="7" height="7" fill="#de886d"/><rect x="287" y="49" width="7" height="7" fill="#de886d"/><rect x="259" y="56" width="7" height="7" fill="#de886d"/><rect x="266" y="56" width="7" height="7" fill="#de886d"/><rect x="280" y="56" width="7" height="7" fill="#de886d"/><rect x="287" y="56" width="7" height="7" fill="#de886d"/><rect x="259" y="63" width="7" height="7" fill="#de886d"/><rect x="266" y="63" width="7" height="7" fill="#de886d"/><rect x="273" y="63" width="7" height="7" fill="#de886d"/><rect x="280" y="63" width="7" height="7" fill="#de886d"/><rect x="308" y="21" width="7" height="7" fill="#de886d"/><rect x="315" y="21" width="7" height="7" fill="#de886d"/><rect x="322" y="21" width="7" height="7" fill="#de886d"/><rect x="301" y="28" width="7" height="7" fill="#de886d"/><rect x="308" y="28" width="7" height="7" fill="#de886d"/><rect x="322" y="28" width="7" height="7" fill="#de886d"/><rect x="329" y="28" width="7" height="7" fill="#de886d"/><rect x="301" y="35" width="7" height="7" fill="#de886d"/><rect x="308" y="35" width="7" height="7" fill="#de886d"/><rect x="322" y="35" width="7" height="7" fill="#de886d"/><rect x="329" y="35" width="7" height="7" fill="#de886d"/><rect x="301" y="42" width="7" height="7" fill="#de886d"/><rect x="308" y="42" width="7" height="7" fill="#de886d"/><rect x="315" y="42" width="7" height="7" fill="#de886d"/><rect x="322" y="42" width="7" height="7" fill="#de886d"/><rect x="329" y="42" width="7" height="7" fill="#de886d"/><rect x="301" y="49" width="7" height="7" fill="#de886d"/><rect x="308" y="49" width="7" height="7" fill="#de886d"/><rect x="322" y="49" width="7" height="7" fill="#de886d"/><rect x="329" y="49" width="7" height="7" fill="#de886d"/><rect x="301" y="56" width="7" height="7" fill="#de886d"/><rect x="308" y="56" width="7" height="7" fill="#de886d"/><rect x="322" y="56" width="7" height="7" fill="#de886d"/><rect x="329" y="56" width="7" height="7" fill="#de886d"/><rect x="301" y="63" width="7" height="7" fill="#de886d"/><rect x="308" y="63" width="7" height="7" fill="#de886d"/><rect x="322" y="63" width="7" height="7" fill="#de886d"/><rect x="329" y="63" width="7" height="7" fill="#de886d"/><rect x="343" y="21" width="7" height="7" fill="#de886d"/><rect x="350" y="21" width="7" height="7" fill="#de886d"/><rect x="357" y="21" width="7" height="7" fill="#de886d"/><rect x="364" y="21" width="7" height="7" fill="#de886d"/><rect x="343" y="28" width="7" height="7" fill="#de886d"/><rect x="350" y="28" width="7" height="7" fill="#de886d"/><rect x="364" y="28" width="7" height="7" fill="#de886d"/><rect x="371" y="28" width="7" height="7" fill="#de886d"/><rect x="343" y="35" width="7" height="7" fill="#de886d"/><rect x="350" y="35" width="7" height="7" fill="#de886d"/><rect x="364" y="35" width="7" height="7" fill="#de886d"/><rect x="371" y="35" width="7" height="7" fill="#de886d"/><rect x="343" y="42" width="7" height="7" fill="#de886d"/><rect x="350" y="42" width="7" height="7" fill="#de886d"/><rect x="357" y="42" width="7" height="7" fill="#de886d"/><rect x="364" y="42" width="7" height="7" fill="#de886d"/><rect x="343" y="49" width="7" height="7" fill="#de886d"/><rect x="350" y="49" width="7" height="7" fill="#de886d"/><rect x="364" y="49" width="7" height="7" fill="#de886d"/><rect x="343" y="56" width="7" height="7" fill="#de886d"/><rect x="350" y="56" width="7" height="7" fill="#de886d"/><rect x="364" y="56" width="7" height="7" fill="#de886d"/><rect x="371" y="56" width="7" height="7" fill="#de886d"/><rect x="343" y="63" width="7" height="7" fill="#de886d"/><rect x="350" y="63" width="7" height="7" fill="#de886d"/><rect x="364" y="63" width="7" height="7" fill="#de886d"/><rect x="371" y="63" width="7" height="7" fill="#de886d"/></g><svg x="406" y="0" width="210" height="84" viewBox="0 0 30 12" preserveAspectRatio="none" shape-rendering="crispEdges"><path class="wa0" fill="#de886d" d="M3 0h12v2h-12zM3 2h2v2h-2zM6 2h6v2h-6zM13 2h2v2h-2zM1 4h16v2h-16zM3 6h12v2h-12zM4 8h1v2h-1zM6 8h1v2h-1zM11 8h1v2h-1zM13 8h1v2h-1z"/><path class="wa1" fill="#000000" d="M5 2h1v2h-1zM12 2h1v2h-1z"/><path class="wa2 wg" fill="#d9f26b" d="M23 4h1v2h-1z"/></svg></svg>